<?xml version="1.0" encoding="utf-8"?>
<svg viewBox="0 0 637.9525451660156 330.21221923828125" xmlns="http://www.w3.org/2000/svg" xmlns:bx="https://boxy-svg.com">
  <rect x="24.477" y="110.058" width="90.512" height="94.881" style="fill: rgb(130, 251, 235); stroke-width: 3;"/>
  <g transform="matrix(1, 0, 0, 1, 0, -1.273388)">
    <rect x="75.118" y="68.931" width="31.179" height="12.273" transform="matrix(1, 0, 0, 1.000001, 0.252045, 93.560713)"/>
    <rect x="77.108" y="59.975" width="7.629" height="12.273" transform="matrix(1, 0, 0, 1.000001, 0.252045, 93.560884)"/>
    <ellipse transform="matrix(-0.752576, 0.658505, -0.658508, -0.752575, 219.329929, 161.476678)" cx="100.834" cy="112.443" rx="3.526" ry="3.526"/>
    <ellipse transform="matrix(-0.485645, 0.874156, -0.874156, -0.485645, 230.712319, 114.673296)" cx="102.492" cy="116.755" rx="3.415" ry="3.415"/>
    <ellipse transform="matrix(-0.760373, 0.649487, -0.649485, -0.760373, 186.958569, 177.637229)" cx="62" cy="59.966" rx="6.76" ry="6.76"/>
    <ellipse transform="matrix(-0.824512, 0.565842, -0.565843, -0.824511, 139.299959, 200.699393)" cx="36.515" cy="59.751" rx="6.623" ry="6.623"/>
    <ellipse transform="matrix(-0.824513, 0.565843, -0.565843, -0.824512, 105.890754, 199.735223)" cx="36.515" cy="59.751" rx="6.623" ry="6.623"/>
    <ellipse transform="matrix(-0.824513, 0.565843, -0.565843, -0.824512, 125.058287, 200.698968)" cx="36.515" cy="59.751" rx="6.623" ry="6.623"/>
    <rect x="72.813" y="157.961" width="7.71" height="11.886"/>
    <ellipse transform="matrix(-0.752576, 0.658508, -0.658503, -0.752578, 210.643715, 157.550063)" cx="100.834" cy="112.443" rx="3.526" ry="3.526"/>
    <rect x="39.297" y="153.035" width="26.021" height="19.81"/>
    <rect x="62.426" y="164.6" width="13.813" height="2.677"/>
    <ellipse transform="matrix(-0.752576, 0.658508, -0.658504, -0.752579, 200.685022, 154.016511)" cx="100.834" cy="112.443" rx="3.526" ry="3.526"/>
  </g>
  <rect x="143.391" y="110.683" width="90.512" height="94.881" style="fill: rgb(124, 192, 255); stroke-width: 3;"/>
  <g transform="matrix(1, 0, 0, 1, 0.636694, -12.733885)">
    <rect x="186.205" y="171.743" width="6.125" height="7.171" rx="8.1" ry="8.1" style="fill: rgb(19, 19, 19);"/>
    <ellipse transform="matrix(-0.643605, 0.765357, -0.765357, -0.643601, 215.594965, 157.34265)" cx="26.02" cy="12.624" rx="2.962" ry="2.962" style="fill: rgb(19, 19, 19);"/>
    <rect x="186.198" y="176.298" width="6.132" height="3.244" style="fill: rgb(19, 19, 19);"/>
    <rect x="177.194" y="173.052" width="23.184" height="1.764" style="fill: rgb(229, 224, 224);"/>
    <rect x="198.865" y="168.516" width="5.796" height="10.08"/>
    <rect x="173.526" y="168.277" width="5.796" height="10.08"/>
    <rect x="50.803" y="45.137" width="1.115" height="1.486" transform="matrix(1.000003, 0, 0, 1.000005, 134.097368, 128.234776)" style="fill: rgb(10, 10, 10);"/>
    <rect x="58.326" y="45.323" width="1.022" height="1.3" transform="matrix(0.999996, 0, 0, 1.000006, 134.098183, 128.235097)" style="fill: rgb(10, 10, 10);"/>
  </g>
  <rect x="266.363" y="110.683" width="90.512" height="94.881" style="fill: rgb(255, 125, 125); stroke-width: 3;"/>
  <rect x="389.334" y="111.931" width="90.512" height="94.881" style="fill: rgb(127, 134, 255); stroke-width: 3;"/>
  <rect x="511.727" y="112.164" width="90.512" height="94.881" style="stroke-width: 3; fill: rgb(228, 127, 255);"/>
  <path d="M 308.27 138.938 H 317.006 V 156.41 H 334.478 V 165.146 H 317.006 V 182.618 H 308.27 V 165.146 H 290.798 V 156.41 H 308.27 Z" style="fill: rgb(255, 255, 255);" bx:shape="cross 290.798 138.938 43.68 43.68 8.736 8.736 0.5 1@3159f4e0"/>
  <path d="M 578.48 171.074 C 577.72 172.833 576.819 174.45 575.776 175.939 C 574.353 177.967 573.189 179.37 572.291 180.15 C 570.899 181.43 569.409 182.084 567.813 182.122 C 566.666 182.122 565.284 181.796 563.676 181.134 C 562.062 180.476 560.578 180.15 559.222 180.15 C 557.799 180.15 556.274 180.476 554.642 181.134 C 553.007 181.796 551.691 182.14 550.684 182.174 C 549.153 182.239 547.628 181.565 546.104 180.15 C 545.132 179.301 543.916 177.848 542.46 175.789 C 540.897 173.59 539.612 171.041 538.606 168.133 C 537.528 164.993 536.987 161.952 536.987 159.009 C 536.987 155.637 537.716 152.729 539.175 150.291 C 540.322 148.334 541.847 146.789 543.758 145.657 C 545.667 144.523 547.731 143.945 549.953 143.908 C 551.17 143.908 552.763 144.283 554.746 145.023 C 556.721 145.765 557.99 146.14 558.546 146.14 C 558.963 146.14 560.371 145.701 562.761 144.824 C 565.021 144.011 566.927 143.674 568.489 143.808 C 572.722 144.149 575.902 145.818 578.018 148.824 C 574.232 151.118 572.359 154.33 572.397 158.453 C 572.43 161.663 573.596 164.335 575.884 166.456 C 576.922 167.441 578.08 168.202 579.369 168.741 C 579.09 169.553 578.795 170.329 578.48 171.074 Z M 568.772 132.87 C 568.772 135.385 567.853 137.736 566.021 139.91 C 563.809 142.495 561.133 143.989 558.234 143.754 C 558.196 143.452 558.176 143.134 558.176 142.799 C 558.176 140.385 559.227 137.799 561.094 135.685 C 562.026 134.615 563.213 133.726 564.651 133.015 C 566.086 132.316 567.443 131.929 568.718 131.863 C 568.756 132.2 568.772 132.536 568.772 132.87 Z" style="fill: rgb(123, 255, 123);"/>
  <rect x="153.912" y="20.129" width="6.125" height="7.171" rx="8.1" ry="8.1" style="fill: rgb(19, 19, 19);" transform="matrix(0, -1.000002, 0.999997, 0, 389.07002, 316.541094)"/>
  <ellipse transform="matrix(0.765364, 0.643604, -0.643604, 0.765359, 394.798639, 133.23858)" cx="26.02" cy="12.624" rx="2.962" ry="2.962" style="fill: rgb(19, 19, 19);"/>
  <rect x="153.905" y="24.684" width="6.132" height="3.244" style="fill: rgb(19, 19, 19);" transform="matrix(0, -1, 1.000001, 0, 389.069928, 316.54071)"/>
  <ellipse transform="matrix(-0.661031, 0.75036, -0.75036, -0.66103, 528.97055, 124.258965)" cx="89.806" cy="46.606" rx="15.256" ry="15.256"/>
  <rect x="153.912" y="20.129" width="6.125" height="7.171" rx="8.1" ry="8.1" style="fill: rgb(19, 19, 19);" transform="matrix(0.999998, 0, 0, 1.000001, 261.522524, 121.224857)"/>
  <ellipse transform="matrix(-0.643604, 0.765358, -0.765364, -0.643599, 444.824305, 126.953661)" cx="26.02" cy="12.624" rx="2.962" ry="2.962" style="fill: rgb(19, 19, 19);"/>
  <rect x="153.905" y="24.684" width="6.132" height="3.244" style="fill: rgb(19, 19, 19);" transform="matrix(1, 0, 0, 1.000001, 261.522125, 121.224866)"/>
  <rect x="153.912" y="20.129" width="6.125" height="7.171" rx="8.1" ry="8.1" style="fill: rgb(19, 19, 19);" transform="matrix(0.999998, 0, 0, 1.000001, 277.341463, 116.357502)"/>
  <ellipse transform="matrix(-0.643604, 0.765358, -0.765364, -0.643599, 460.643244, 122.086306)" cx="26.02" cy="12.624" rx="2.962" ry="2.962" style="fill: rgb(19, 19, 19);"/>
  <rect x="153.905" y="24.684" width="6.132" height="3.244" style="fill: rgb(19, 19, 19);" transform="matrix(1, 0, 0, 1.000001, 277.341064, 116.35751)"/>
  <rect x="153.912" y="20.129" width="6.125" height="7.171" rx="8.1" ry="8.1" style="fill: rgb(19, 19, 19);" transform="matrix(0.999998, 0, 0, 1.000001, 293.430788, 120.413639)"/>
  <ellipse transform="matrix(-0.643604, 0.765358, -0.765364, -0.643599, 476.732569, 126.142443)" cx="26.02" cy="12.624" rx="2.962" ry="2.962" style="fill: rgb(19, 19, 19);"/>
  <rect x="153.905" y="24.684" width="6.132" height="3.244" style="fill: rgb(19, 19, 19);" transform="matrix(1, 0, 0, 1.000001, 293.430389, 120.413647)"/>
  <rect x="153.912" y="20.129" width="6.125" height="7.171" rx="8.1" ry="8.1" style="fill: rgb(19, 19, 19);" transform="matrix(0, 1.000002, -0.999997, 0, 479.342944, 2.814589)"/>
  <ellipse transform="matrix(-0.765364, -0.643604, 0.643604, -0.765359, 473.614325, 186.117102)" cx="26.02" cy="12.624" rx="2.962" ry="2.962" style="fill: rgb(19, 19, 19);"/>
  <rect x="153.905" y="24.684" width="6.132" height="3.244" style="fill: rgb(19, 19, 19);" transform="matrix(0, 1, -1.000001, 0, 479.343036, 2.814972)"/>
  <rect x="-153.912" y="-20.129" width="6.125" height="7.171" rx="8.1" ry="8.1" style="fill: rgb(19, 19, 19);" transform="matrix(0.999998, 0, 0, -1.000001, 601.658812, 158.339084)"/>
  <ellipse transform="matrix(0.643604, 0.765358, 0.765364, -0.643599, 477.138148, 192.868788)" cx="-26.02" cy="-12.624" rx="2.962" ry="2.962" style="fill: rgb(19, 19, 19);"/>
  <rect x="-153.905" y="-24.684" width="6.132" height="3.244" style="fill: rgb(19, 19, 19);" transform="matrix(0.999998, 0, 0, -1.000001, 601.645216, 149.229932)"/>
  <rect x="-153.912" y="-20.129" width="6.125" height="7.171" rx="8.1" ry="8.1" style="fill: rgb(19, 19, 19);" transform="matrix(0.999998, 0, 0, -1.000001, 586.110319, 165.099277)"/>
  <ellipse transform="matrix(0.643604, 0.765358, 0.765364, -0.643599, 461.589655, 199.62898)" cx="-26.02" cy="-12.624" rx="2.962" ry="2.962" style="fill: rgb(19, 19, 19);"/>
  <rect x="-153.905" y="-24.684" width="6.132" height="3.244" style="fill: rgb(19, 19, 19);" transform="matrix(0.999998, 0, 0, -1.000001, 586.096724, 155.990124)"/>
  <rect x="-153.912" y="-20.129" width="6.125" height="7.171" rx="8.1" ry="8.1" style="fill: rgb(19, 19, 19);" transform="matrix(0.999998, 0, 0, -1.000001, 570.561796, 158.879886)"/>
  <ellipse transform="matrix(0.643604, 0.765358, 0.765364, -0.643599, 446.041132, 193.40959)" cx="-26.02" cy="-12.624" rx="2.962" ry="2.962" style="fill: rgb(19, 19, 19);"/>
  <rect x="-153.905" y="-24.684" width="6.132" height="3.244" style="fill: rgb(19, 19, 19);" transform="matrix(0.999998, 0, 0, -1.000001, 570.548201, 149.770734)"/>
  <rect x="153.912" y="20.129" width="6.125" height="7.171" rx="8.1" ry="8.1" transform="matrix(0.999997854232788, 0, 0, 1.0000009536743164, 234.7054322284896, 221.46500596278634)" style="fill: rgb(255, 102, 0);"/>
  <ellipse transform="matrix(-0.6436041593551637, 0.7653578519821168, -0.7653639912605287, -0.6435992717742921, 418.0072205585677, 227.193803875384)" cx="26.02" cy="12.624" rx="2.962" ry="2.962" style="fill: rgb(255, 102, 0);"/>
  <rect x="153.905" y="24.684" width="6.132" height="3.244" transform="matrix(0.9999999999999999, 0, 0, 1.0000009536743164, 234.70503549997397, 221.46501359218087)" style="fill: rgb(255, 102, 0);"/>
  <path d="M 15.433 10.869 L 15.996 11.844 L 14.87 11.844 L 15.433 10.869 Z" transform="matrix(0.999875, -0.016492, 0.016495, 0.999857, 375.001005, 229.17047)" style="fill: rgb(4, 0, 0);" bx:shape="triangle 14.87 10.869 1.126 0.975 0.5 0 1@8a592e10"/>
  <path d="M 16.537 10.281 L 17.062 11.192 L 16.011 11.192 L 16.537 10.281 Z" transform="matrix(0.999321, -0.036703, 0.036647, 0.999313, 374.35976, 230.191434)" style="fill: rgb(4, 0, 0);" bx:shape="triangle 16.011 10.281 1.051 0.911 0.5 0 1@0d679071"/>
  <path d="M 17.326 9.884 L 17.95 10.965 L 16.702 10.965 L 17.326 9.884 Z" transform="matrix(0.999778, -0.020749, 0.02075, 0.999794, 374.562461, 230.254269)" style="fill: rgb(4, 0, 0);" bx:shape="triangle 16.702 9.884 1.248 1.081 0.5 0 1@2592eb91"/>
  <path d="M 14.991 8.604 L 15.492 9.473 L 14.489 9.473 L 14.991 8.604 Z" transform="matrix(0.509647, -0.860391, 0.860336, 0.509694, 374.986164, 247.545653)" style="fill: rgb(4, 0, 0);" bx:shape="triangle 14.489 8.604 1.003 0.869 0.5 0 1@421a3feb"/>
  <path d="M 17.869 9.775 L 18.353 10.63 L 17.384 10.63 L 17.869 9.775 Z" transform="matrix(0.550988, -0.834513, 0.834532, 0.550971, 372.710878, 248.534209)" style="fill: rgb(4, 0, 0);" bx:shape="triangle 17.384 9.775 0.969 0.855 0.5 0 1@899017f3"/>
  <path d="M 17.231 8.415 L 17.842 9.474 L 16.62 9.474 L 17.231 8.415 Z" transform="matrix(-0.99821, 0.059913, -0.059911, -0.998207, 409.535249, 247.369201)" style="fill: rgb(4, 0, 0);" bx:shape="triangle 16.62 8.415 1.222 1.059 0.5 0 1@984a391b"/>
  <g>
    <path d="M 408.25 237.959 C 408.25 237.959 412.258 237.785 412.48 237.571 C 412.981 237.088 412.833 236.064 413.487 235.432 C 416.577 232.45 417.78 228.868 422.751 227.27 C 426.723 225.992 433.627 227.445 433.627 231.934 C 433.627 234.752 434.864 238.126 432.822 240.097 C 432.612 240.299 432.127 241.652 431.815 241.652 C 431.108 241.652 428.826 242.592 428.391 243.012 C 427.882 243.503 425.09 243.206 424.362 243.206 C 421.552 243.206 417.193 242.507 415.501 240.874 C 415.019 240.409 412.76 239.32 412.48 239.32 C 412.36 239.32 409.459 237.959 409.459 237.959" style="stroke: rgb(0, 0, 0); fill: rgb(216, 216, 216);" transform="matrix(0.993151, -0.116837, 0.116837, 0.993151, -24.579492, 50.812794)"/>
    <text x="154.272" y="88.569" style="white-space: pre; fill: rgb(51, 51, 51); font-family: sans-serif; font-size: 9.1px;" transform="matrix(0.414035, 0, 0, 0.414036, 352.711273, 197.347427)">Blablabla</text>
    <text x="154.272" y="88.569" style="white-space: pre; fill: rgb(51, 51, 51); font-family: sans-serif; font-size: 9.1px;" transform="matrix(0.414035, 0, 0, 0.414036, 352.907104, 202.215759)">Blablabla</text>
  </g>
</svg>