<?xml version="1.0" encoding="utf-8"?>
<svg viewBox="0 0 500 500" xmlns="http://www.w3.org/2000/svg">
  <path d="M 96.374 260.973 C 96.374 260.973 213.74 186.435 246.183 194.178 C 246.183 194.178 347.916 261.45 303.913 261.45 L 196.087 333.969 C 152.084 333.969 96.374 304.976 96.374 260.973 Z" style="fill: rgb(255, 170, 253);"/>
  <path d="M 102.099 275.763 C 102.099 275.763 188.853 209.519 221.373 209.923 C 252.214 210.306 317.747 242.366 317.747 242.366 C 333.968 239.503 276.717 209.271 276.717 202.29 C 276.717 198.128 211.066 185.879 188.931 201.335 C 183.401 205.197 103.728 227.377 87.786 259.541 C 89.358 262.685 84.039 275.763 102.099 275.763 Z" style="stroke: rgb(0, 0, 0); fill: rgb(254, 246, 246); stroke-width: 4;"/>
  <path d="M 251.474 274.797 C 245.235 276.952 221.225 256.242 225.795 242.333 C 230.684 227.452 235.326 248.497 239.647 248.497 C 239.961 248.497 263.813 237.213 262.313 236.169 C 252.817 229.56 254.177 219.449 257.826 217.675 C 265.439 213.973 289.093 240.38 279.942 251.578 C 275.348 257.198 268.718 239.118 264.832 243.873 C 260.438 249.25 252.43 252.885 248.461 257.741 C 247.779 258.576 259.749 271.941 251.474 274.797 Z" style="stroke: rgb(0, 0, 0); fill: rgb(101, 99, 99);"/>
  <path d="M 95.419 245.229 C 95.419 245.229 44.565 268.13 59.16 284.351 C 60.286 285.603 101.763 254.802 85.877 316.794 C 82.396 330.376 141.002 420.879 138.359 385.496 C 136.871 365.578 157.347 337.262 177.48 352.099 C 187.271 359.314 195.483 373.806 193.702 412.214 C 192.851 430.576 203.059 423.479 222.328 437.023 C 245.004 452.961 336.905 429.891 354.962 418.893 C 394.181 395.006 433.28 341.603 402.672 307.252 C 397.456 301.398 341.624 259.953 342.557 253.817 C 353.694 180.564 318.967 194.965 315.84 196.564 C 293.705 207.883 277.847 248.092 277.672 248.092 C 260.977 248.092 227.099 283.397 227.099 283.397 C 227.099 283.397 167.303 237.593 147.9 264.313 C 139.624 275.711 152.111 316.089 175.573 318.702 C 193.116 320.655 146.947 317.748 146.947 317.748 L 95.419 245.229 Z" style="stroke: rgb(0, 0, 0); fill: rgb(255, 244, 244); stroke-width: 4;"/>
  <path style="stroke: rgb(0, 0, 0); fill: rgb(255, 244, 244);" d="M 96.374 208.97"/>
  <path d="M 285.818 357.468 C 285.818 368.832 278.26 378.044 268.936 378.044 C 259.613 378.044 252.054 368.832 252.054 357.468 C 252.054 346.104 259.612 336.892 268.936 336.892 C 278.26 336.892 285.818 346.104 285.818 357.468 Z" style="fill: rgb(216, 216, 216); stroke-width: 4.00001; stroke: rgb(158, 158, 158);" transform="matrix(-0.678282, 0.734801, -0.734801, -0.678282, 714.018552, 402.317704)"/>
  <path d="M 320.602 418.893 L 394.075 367.366 C 407.833 371.183 408.788 388.359 404.572 388.359 L 333.008 442.748 C 328.792 442.748 313.923 439.33 320.602 418.893 Z" style="stroke-width: 4; fill: rgb(255, 170, 253); stroke: rgb(207, 207, 207);" transform="matrix(-1, 0, 0, -1, 720.411185, 798.663556)"/>
  <path style="fill: rgb(216, 216, 216); stroke: rgb(0, 0, 0);" d="M 354.962 426.527"/>
  <ellipse style="fill: rgb(216, 216, 216); stroke: rgb(0, 0, 0); stroke-width: 24;" transform="matrix(-0.97561, 0.21951, -0.219512, -0.975609, 293.756064, 578.794774)" cx="82.808" cy="213.829" rx="16.245" ry="20.107"/>
  <ellipse style="fill: rgb(216, 216, 216); stroke: rgb(0, 0, 0); stroke-width: 15;" transform="matrix(-0.975611, 0.219511, -0.219512, -0.97561, 171.857194, 433.024827)" cx="64.42" cy="153.193" rx="12.637" ry="14.405"/>
  <path d="M 352.737 378.793 C 352.737 386.772 349.944 389.783 342.768 389.783 C 335.592 389.783 326.238 374.74 326.238 366.761 C 326.238 358.782 330.436 352.739 337.613 352.739 C 344.789 352.739 352.737 370.814 352.737 378.793 Z" style="fill: rgb(255, 213, 0); stroke: rgb(0, 0, 0);" transform="matrix(0.229037, 0.973418, -0.973418, 0.229037, 623.124417, -44.234563)"/>
  <path d="M 367.879 307.85 C 367.879 319.214 360.321 328.426 350.997 328.426 C 341.674 328.426 334.115 319.214 334.115 307.85 C 334.115 296.486 341.673 287.274 350.997 287.274 C 360.321 287.274 367.879 296.486 367.879 307.85 Z" style="fill: rgb(216, 216, 216); stroke-width: 4.00001; stroke: rgb(158, 158, 158);" transform="matrix(-0.678282, 0.734801, -0.734801, -0.678282, 815.280647, 258.746025)"/>
</svg>