<?xml version="1.0" encoding="utf-8"?>
<svg viewBox="-338.7120056152344 -55.51300048828125 493.03900146484375 493.03900146484375" width="493.03900146484375" height="493.03900146484375" xmlns="http://www.w3.org/2000/svg" xmlns:bx="https://boxy-svg.com">
  <path transform="matrix(0.09863001108169556, 0.4081999957561493, -0.4081999957561493, 0.09863001108169556, 87.99699401855469, -80.64396667480469)" d="M 518.448 82.605 L 537.552 82.605 L 595.859 498.423 A 97.908 97.908 0 0 1 598.577 501.141 L 1014.395 559.448 L 1014.395 578.552 L 598.577 636.859 A 97.908 97.908 0 0 1 595.859 639.577 L 537.552 1055.395 L 518.448 1055.395 L 460.141 639.577 A 97.908 97.908 0 0 1 457.423 636.859 L 41.605 578.552 L 41.605 559.448 L 457.423 501.141 A 97.908 97.908 0 0 1 460.141 498.423 Z M 528 359.208 A 209.792 209.792 0 0 0 528 778.792 A 209.792 209.792 0 0 0 528 359.208" style="stroke-width: 4.76251; stroke: rgb(255, 255, 255); fill: rgb(93, 148, 251);" bx:shape="cog 528 569 209.792 97.908 486.395 0.95 4 1@2de0da93"/>
  <path transform="matrix(-0.5581030249595642, 0.8297709822654724, -0.8297719955444336, -0.5581030249595642, 630.5247192382814, 103.88323974609375)" d="M 476 551 m -108.682 0 a 108.682 108.682 0 1 0 217.364 0 a 108.682 108.682 0 1 0 -217.364 0 Z M 476 551 m -88.527 0 a 88.527 88.527 0 0 1 177.054 0 a 88.527 88.527 0 0 1 -177.054 0 Z" style="fill: rgb(255, 255, 255);" bx:shape="ring 476 551 88.527 88.527 108.682 108.682 1@41c483d8"/>
  <path transform="matrix(-0.5581030249595642, 0.8297709822654724, -0.8297709822654724, -0.5581030249595642, 630.5244750976564, 103.88280487060547)" d="M 476 551 m -114.466 0 a 114.466 114.466 0 1 0 228.932 0 a 114.466 114.466 0 1 0 -228.932 0 Z M 476 551 m -102.179 0 a 102.179 102.179 0 0 1 204.358 0 a 102.179 102.179 0 0 1 -204.358 0 Z" style="stroke-width: 0; fill: rgb(93, 148, 251);" bx:shape="ring 476 551 102.179 102.179 114.466 114.466 1@e544d413"/>
  <path d="M -212.284 219.339 L -177.964 275.779 L -197.954 275.779 L -232.144 219.339 L -212.284 219.339 Z M -215.774 275.779 L -232.144 275.779 L -232.144 224.699 L -215.774 251.539 L -215.774 275.779 Z M -194.344 219.339 L -177.964 219.339 L -177.964 270.419 L -194.344 243.459 L -194.344 219.339 Z" style="fill: rgb(93, 148, 251); white-space: pre;" transform="matrix(0.9748570919036865, -0.22282998263835907, 0.22282998263835907, 0.9748570919036865, 52.472015380859375, -96.65037536621094)"/>
</svg>