<?xml version="1.0" encoding="utf-8"?>
<svg viewBox="0 0 630 475" xmlns="http://www.w3.org/2000/svg" xmlns:bx="https://boxy-svg.com">
  <defs>
    <radialGradient id="gradient-1" gradientUnits="userSpaceOnUse" cx="215.719" cy="325.063" r="8" spreadMethod="pad" gradientTransform="matrix(1, 0, 0, 1, -88.760986, -56.469299)">
      <stop offset="0" style="stop-color: #bada55"/>
      <stop offset="1" style="stop-color: #758d29"/>
    </radialGradient>
    <pattern id="pattern-0" x="0" y="0" width="20" height="20" patternUnits="userSpaceOnUse" viewBox="0 0 100 100">
      <path d="M 0 0 L 50 0 L 50 100 L 0 100 Z" style="fill: black;"/>
    </pattern>
  </defs>
  <g id="g4002" transform="matrix(0.345996, 0, 0, 0.345996, 70.259247, 33.670502)">
    <g transform="matrix(1, 0, 0, 1, -32.967052, -11.697929)">
      <path style="fill: rgb(0, 0, 0); fill-opacity: 1; fill-rule: nonzero; stroke: none;" d="M 855.848 277.057 C 836.462 276.948 810.633 281.699 791.831 285.22 C 759.084 273.34 745.623 272.929 724.595 275.988 C 708.437 298.723 706.789 327.628 717.101 346.568 C 716.448 349.193 718.218 351.701 717.385 353.871 C 706.175 383.044 703.278 393.145 705.48 413.775 C 704.632 413.818 700.06 414.895 699.146 414.964 C 692.88 416.273 679.873 418.299 677.125 421.958 C 676.245 423.129 674.773 424.961 677.18 426.117 C 684.3 429.534 695.384 424.477 705.486 424.109 C 707.076 431.78 715.794 439.16 712.876 446.501 C 711.72 449.408 707.348 450.009 704.639 450.997 C 699.013 453.735 694.527 456.7 696.019 460.86 C 700.688 464.035 712.026 456.716 718.569 456.532 C 721.724 462.382 725.744 467.368 729.843 472.274 C 730.256 472.88 732.086 474.648 731.238 475.421 C 723.924 482.091 706.911 492.187 710.535 497.526 C 717.488 500.146 722.662 491.557 728.829 487.418 C 730.112 485.452 735.352 483.204 738.956 483.52 C 745.882 484.128 759.788 493.51 759.21 493.384 C 740.2 511.448 736.751 528.4 741.869 543.751 C 731.328 561.343 725.54 578.942 728.777 597.224 C 739.068 650.486 796.481 669.056 826.936 620.962 L 852.526 642.537 L 875.571 619.588 C 888.612 631.845 892.524 638.296 900.264 642.566 C 913.379 649.801 926.943 649.22 937.687 645.195 C 980.684 624.842 996.743 576.947 964.497 538.575 C 967.7 524.166 966.16 508.663 951.808 490.204 C 950.904 489.041 960.387 483.731 967.199 476.856 C 972.301 471.706 985.474 462.964 983.824 456.427 C 987.488 457.228 990.74 458.158 992.51 459.53 C 1005.851 464.132 1009.999 467.385 1015.078 462.47 C 1018.43 459.227 1013.094 458.051 1004.346 453.49 C 998.64 451.394 995.598 448.569 991.257 447.519 C 995.866 441.212 994.656 432.4 997.708 425.252 C 1008.871 426.808 1025.63 427.994 1022.935 422.958 C 1020.142 417.74 1009.025 419.267 998.364 416.577 C 1000.643 409.449 998.097 400.52 998.646 392.967 C 1010.384 394.588 1019.673 394.372 1026.871 392.759 C 1033.272 380.508 1013.427 385.968 1003.527 384.218 C 1001.875 384.115 1000.379 384.033 998.901 383.988 C 998.747 377.724 992.314 358.672 990.827 352.337 C 1003.726 320.956 999.266 299.035 981.523 298.407 C 985.982 285.463 974.018 261.421 962.74 254.637 C 941.263 253.038 933.55 259.687 914.582 269.843 C 883.866 247.144 875.728 254.961 855.848 277.057 Z" id="path3766"/>
      <path style="fill: rgb(255, 255, 255); fill-opacity: 1; fill-rule: nonzero; stroke: none;" d="M 955.337 262.657 C 936.403 265.115 920.876 276.091 905.764 288.104 C 866.417 285.588 827.583 290.187 788.68 297.163 C 769.655 292.674 763.127 281.337 731.262 283.873 C 719.698 293.58 714.07 318.451 720.927 332.873 C 722.256 337.425 731.927 340.729 729.921 344.577 C 717.499 366.073 713.458 390.611 714.68 415.136 C 717.151 448.149 734.652 469.72 758.174 483.773 C 777.059 466.929 790.127 462.48 801.447 464.912 C 816.119 468.064 828.925 478.526 845.17 498.551 C 858.993 483.374 873.334 468.006 890.608 464.451 C 900.06 462.505 911.62 464.775 920.987 470.79 C 925.782 473.869 930.002 477.93 933.071 482.908 C 934.181 484.71 938.055 482.602 941.447 480.778 C 947.936 477.289 955.95 470.68 961.637 466.441 C 987.688 443.372 990.819 398.835 979.418 365.156 C 975.316 350.847 970.219 342.876 961.442 332.002 C 963.228 321.164 968.018 306.99 969.605 294.117 C 971.336 280.082 969.26 267.592 955.337 262.657 Z M 924.23 402.52 C 938.89 404.13 940.571 432.418 925.134 430.617 C 913.584 426.339 911.157 404.188 924.23 402.52 Z M 778.013 411.48 C 792.755 413.071 793.916 442.877 778.422 441.06 C 766.872 436.783 764.94 413.149 778.013 411.48 Z M 856.905 433.371 C 864.718 432.814 869.904 437.267 870.756 442.801 C 872.085 451.437 864.462 455.194 857.132 455.772 C 848.823 456.428 840.12 452.215 841.682 443.651 C 843.077 436.005 849.838 433.875 856.905 433.371 Z" id="path3834"/>
      <g id="g3852" transform="matrix(1.236791, 0, 0, 1.236791, 170.99295, -77.39431)">
        <g id="g3842">
          <path id="path3940" d="m 640.91764,427.16156 c 0.2496,1.71346 1.86538,3.04776 4.28566,4.17574 c 3.5124,1.63697 8.93993,2.15553 13.90354,4.13558 c 9.68735,3.86442 18.29918,6.43606 19.38561,4.36244 c 1.9062,-3.24873 -0.59625,-5.67612 -7.31212,-8.99774 c -2.44122,-0.4104 -5.90044,-2.6375 -9.48796,-3.72084 c -9.57374,-2.89103 -20.35479,-5.61025 -20.77473,0.0448 z" style="font-size:medium;font-style:normal;font-variant:normal;font-weight:normal;font-stretch:normal;text-indent:0;text-align:start;text-decoration:none;line-height:normal;letter-spacing:normal;word-spacing:normal;text-transform:none;direction:ltr;block-progression:tb;writing-mode:lr-tb;text-anchor:start;color:#000000;fill:#000000;fill-opacity:1;stroke:none;stroke-width:1px;marker:none;visibility:visible;display:inline;overflow:visible;enable-background:accumulate;font-family:Bitstream Vera Sans;-inkscape-font-specification:Bitstream Vera Sans"/>
          <path style="font-size:medium;font-style:normal;font-variant:normal;font-weight:normal;font-stretch:normal;text-indent:0;text-align:start;text-decoration:none;line-height:normal;letter-spacing:normal;word-spacing:normal;text-transform:none;direction:ltr;block-progression:tb;writing-mode:lr-tb;text-anchor:start;color:#000000;fill:#000000;fill-opacity:1;stroke:none;stroke-width:1px;marker:none;visibility:visible;display:inline;overflow:visible;enable-background:accumulate;font-family:Bitstream Vera Sans;-inkscape-font-specification:Bitstream Vera Sans" d="m 666.57721,383.21251 c 5.44392,-0.16573 11.47564,0.0896 16.2487,-0.65451 c 3.42585,-0.53411 6.88391,-1.3947 6.86487,-3.55782 c -0.037,-4.19956 -10.15873,-2.11241 -17.46163,-3.29409 c 0.11639,0.29098 -28.34065,2.57227 -28.23199,8.18991 c 0.14041,7.25912 13.44563,0.10134 22.58005,-0.68349 z" id="path3942"/>
          <path id="path3944" d="m 649.65815,405.0373 c 0.99041,5.78294 12.93441,4.31124 19.05802,4.52933 c 5.48882,0.19549 15.70422,2.06371 16.321,-2.45042 c 0.59721,-4.37096 -6.37832,-3.383 -12.32116,-4.83182 c -8.09432,1.05613 -23.88284,-2.06415 -23.05786,2.75291 z" style="font-size:medium;font-style:normal;font-variant:normal;font-weight:normal;font-stretch:normal;text-indent:0;text-align:start;text-decoration:none;line-height:normal;letter-spacing:normal;word-spacing:normal;text-transform:none;direction:ltr;block-progression:tb;writing-mode:lr-tb;text-anchor:start;color:#000000;fill:#000000;fill-opacity:1;stroke:none;stroke-width:1px;marker:none;visibility:visible;display:inline;overflow:visible;enable-background:accumulate;font-family:Bitstream Vera Sans;-inkscape-font-specification:Bitstream Vera Sans"/>
        </g>
        <g id="g3847">
          <path style="font-size:medium;font-style:normal;font-variant:normal;font-weight:normal;font-stretch:normal;text-indent:0;text-align:start;text-decoration:none;line-height:normal;letter-spacing:normal;word-spacing:normal;text-transform:none;direction:ltr;block-progression:tb;writing-mode:lr-tb;text-anchor:start;color:#000000;fill:#000000;fill-opacity:1;stroke:none;stroke-width:1px;marker:none;visibility:visible;display:inline;overflow:visible;enable-background:accumulate;font-family:Bitstream Vera Sans;-inkscape-font-specification:Bitstream Vera Sans" d="m 471.41764,440.51389 c 4.08021,5.93745 -12.95446,11.64368 -17.85472,14.86022 c -7.65209,5.02284 -15.10277,15.07749 -19.53861,12.34328 c -5.41799,-3.3396 8.44794,-11.91704 14.49766,-16.45543 c 9.52911,-6.7797 19.42619,-15.7968 22.89567,-10.74807 z" id="path3934"/>
          <path id="path3936" d="m 454.33626,401.86745 c 0.66142,4.7773 -15.7296,1.95105 -21.17955,3.41734 c -8.49067,2.28439 -24.29287,8.65353 -27.7439,4.13009 c -4.06429,-5.32727 17.94916,-9.09968 23.23298,-10.02531 c 1.06106,-0.18588 22.83489,-5.08817 25.69047,2.47788 z" style="font-size:medium;font-style:normal;font-variant:normal;font-weight:normal;font-stretch:normal;text-indent:0;text-align:start;text-decoration:none;line-height:normal;letter-spacing:normal;word-spacing:normal;text-transform:none;direction:ltr;block-progression:tb;writing-mode:lr-tb;text-anchor:start;color:#000000;fill:#000000;fill-opacity:1;stroke:none;stroke-width:1px;marker:none;visibility:visible;display:inline;overflow:visible;enable-background:accumulate;font-family:Bitstream Vera Sans;-inkscape-font-specification:Bitstream Vera Sans"/>
          <path style="font-size:medium;font-style:normal;font-variant:normal;font-weight:normal;font-stretch:normal;text-indent:0;text-align:start;text-decoration:none;line-height:normal;letter-spacing:normal;word-spacing:normal;text-transform:none;direction:ltr;block-progression:tb;writing-mode:lr-tb;text-anchor:start;color:#000000;fill:#000000;fill-opacity:1;stroke:none;stroke-width:1px;marker:none;visibility:visible;display:inline;overflow:visible;enable-background:accumulate;font-family:Bitstream Vera Sans;-inkscape-font-specification:Bitstream Vera Sans" d="m 455.76546,423.40048 c 1.96121,4.98088 -9.39968,5.82564 -14.06151,8.22928 c -8.04434,4.14767 -18.62691,10.13101 -20.14574,5.02927 c -0.80714,-2.71119 2.16565,-4.11731 7.56636,-6.79173 c 8.09344,-4.00785 24.12574,-12.85455 26.64089,-6.46682 z" id="path3938"/>
        </g>
      </g>
      <path id="path3827" d="M 865.294 444.8 C 865.294 448.32 861.432 451.175 856.668 451.175 C 851.904 451.175 848.042 448.32 848.042 444.8 C 848.042 441.278 851.904 438.423 856.668 438.423 C 861.432 438.423 865.294 441.278 865.294 444.8 Z" style="fill: rgb(255, 255, 0); fill-opacity: 1; fill-rule: nonzero; stroke: none;"/>
      <path style="fill: rgb(255, 128, 128); fill-opacity: 1; fill-rule: nonzero; stroke: none;" d="M 845.409 624.66 C 821.967 603.11 800.285 584.152 786.201 569.181 C 779.67 562.239 778.609 558.582 782.235 555.499 C 786.143 552.175 790.548 545.836 791.435 542.258 C 791.863 540.534 792.706 536.698 796.138 533.382 C 803.203 526.555 804.601 521.444 806.096 513.597 C 807.283 498.414 795.433 490.049 781.813 489.035 C 778.82 488.629 776.653 487.772 776.653 486.993 C 776.653 486.256 778.731 484.243 781.27 482.52 C 783.809 480.798 786.13 479.091 786.429 478.728 C 787.318 477.648 794.293 475.727 798.377 475.438 C 802.184 475.168 805.628 475.77 812.216 477.858 C 820.626 480.522 830.357 491.646 837.998 502.969 C 843.41 510.989 846.595 511.316 850.969 504.299 C 856.985 494.646 872.822 481.106 883.35 475.843 C 889.565 472.736 894.88 472.85 900.738 473.149 C 906.499 473.444 912.375 474.296 917.481 477.526 C 920.559 479.475 923.381 481.859 923.752 482.825 C 924.558 484.925 924.921 484.651 919.112 486.321 C 910.79 488.939 907.22 495.324 903.821 502.247 C 902.33 503.782 902.185 512.609 903.594 516.112 C 904.55 520.408 906.975 523.484 909.711 526.888 C 913.652 530.505 914.212 535.205 915.897 539.846 C 917.079 542.96 918.854 546.639 920.288 548.651 C 921.436 550.263 925.819 551.322 923.626 555.168 C 920.293 561.014 908.475 575.438 900.479 583.245 L 852.778 629.819 C 851.812 629.819 848.496 627.497 845.409 624.66 Z" id="path3800"/>
      <g id="g3813" transform="matrix(1.23679, 0, 0, 1.23679, 176.390671, -80.389519)" style="fill: rgb(255, 255, 255);">
        <path transform="translate(0,-27.64025)" id="path3804" d="m 611.3484,533.70934 c -4.18386,-1.47439 -7.46685,-5.98968 -7.63652,-10.50299 c -0.19719,-3.16403 -1.51874,-5.89486 -3.8206,-8.0802 c -8.15467,-6.72177 -5.83929,-19.26438 4.43128,-24.00455 c 6.77471,-3.12673 12.81437,-1.54167 19.46429,5.10825 c 9.95162,9.95162 10.84986,26.36598 1.9002,34.72388 c -3.73868,3.49147 -9.24669,4.55 -14.33865,2.75561 z" style="fill:#ffffff;fill-opacity:1;fill-rule:nonzero;stroke:none"/>
        <path transform="translate(0,-27.64025)" id="path3807" d="m 598.61407,611.5757 c -11.15837,-2.30927 -18.75276,-10.80132 -19.92605,-22.28133 l -0.46449,-4.54477 l 6.39121,-6.58672 c 5.75988,-5.93609 14.82638,-16.93268 23.89277,-28.97912 c 3.24286,-4.30876 3.39703,-4.3936 7.98404,-4.3936 c 5.45657,0 12.32089,-1.87407 14.67817,-4.00739 c 1.57158,-1.42225 1.78668,-1.35081 4.44363,1.47595 c 8.79573,9.35789 10.12751,28.24376 3.05643,43.34311 c -2.74767,5.86728 -4.19784,7.94524 -9.76196,13.98793 c -3.23277,3.51082 -12.11665,9.58086 -16.40946,11.212 c -4.36096,1.65703 -8.50183,1.88785 -13.88429,0.77394 z" style="fill:#ffffff;fill-opacity:1;fill-rule:nonzero;stroke:none"/>
        <path transform="translate(0,-27.64025)" id="path3809" d="m 482.30445,611.87915 c -7.31344,-2.78135 -16.63836,-9.94329 -20.84288,-16.00825 c -9.62993,-13.89103 -9.45448,-36.94821 0.38069,-50.03078 c 1.99853,-2.6584 2.34081,-2.80153 4.07656,-1.70467 c 2.32362,1.46835 8.81365,3.83507 12.62079,4.60243 c 2.20274,0.44398 3.73116,1.85566 6.96617,6.43414 c 4.09424,5.79454 24.41685,26.75097 28.59971,29.49169 c 1.18762,0.77816 2.67066,2.37029 3.29563,3.53807 c 1.01825,1.90262 0.81199,2.70049 -1.98511,7.6787 c -6.06803,10.79978 -13.73052,15.72998 -25.20749,16.21901 c -3.6227,0.15436 -7.17953,0.0552 -7.90407,-0.22034 z" style="fill:#ffffff;fill-opacity:1;fill-rule:nonzero;stroke:none"/>
        <path transform="translate(0,-27.64025)" id="path3811" d="m 473.52635,537.95927 c -4.93749,-1.95007 -7.8773,-6.79894 -8.5377,-14.08195 c -1.29596,-14.29211 12.02333,-29.98844 25.47032,-30.01589 c 4.0336,-0.008 7.06038,1.2666 10.38876,4.37557 c 5.32934,4.97803 4.33046,14.06796 -2.24865,20.4631 c -2.6654,2.59088 -4.21132,5.07549 -5.17281,8.31379 c -1.8051,6.07964 -3.89653,9.49939 -6.54855,10.70773 c -3.91975,1.78596 -9.19343,1.87983 -13.35137,0.23765 l 0,0 z" style="fill:#ffffff;fill-opacity:1;fill-rule:nonzero;stroke:none"/>
      </g>
      <g id="g3899" transform="matrix(1.23679, 0, 0, 1.23679, 21.268423, 36.185619)">
        <path id="rect3763" d="m 688.84228,180.95708 c 3.68851,-3.07175 8.4283,-3.87423 13.40757,-3.18118 c 7.54796,1.05058 14.4918,6.49988 20.3131,11.72787 c 5.57587,5.00757 7.07154,3.44682 9.12595,13.73785 c 9.74359,0.53809 14.07456,4.32374 18.86089,7.83619 c 0,-0.4782 14.92158,-5.42093 22.14947,-3.51307 c 6.54543,1.72772 12.25199,6.43198 15.87502,12.66623 c 1.39216,5.51929 1.64132,8.49791 1.12481,13.92242 c -1.60044,16.80833 -9.98944,31.11424 -21.16702,35.43865 c -15.21248,5.88545 -30.43538,-14.37912 -28.19353,-17.05799 c -10.74704,3.03812 -19.32971,-0.10768 -26.49036,-7.31639 c -8.44806,3.86998 -17.10701,5.63096 -26.06754,4.37615 c -8.43776,-1.1816 -15.97512,-6.58593 -18.35785,-15.85659 c -4.30776,-21.15145 1.50037,-41.15452 19.41949,-52.78014 z" style="fill:#000000;fill-opacity:1;fill-rule:nonzero;stroke:none"/>
        <g transform="translate(125.11063,-95.391458)" id="g3892">
          <path style="fill:#ff0000;fill-opacity:1;fill-rule:nonzero;stroke:none" d="m 604.76422,341.4293 c -2.12621,-0.0239 -4.33415,-1.07388 -5.89199,-2.26962 c -1.88749,-0.86841 -3.65177,-1.98994 -5.2997,-3.53071 c -1.60148,-0.86403 -2.24422,-2.90092 -3.54349,-4.16239 c -0.69132,-2.14916 -1.88118,-4.1603 -2.05841,-6.37406 c -1.16582,-2.30893 -0.61935,-4.61486 0.25953,-6.86107 c 0.2088,-1.85578 1.64194,-3.20124 1.6445,-5.12344 c 1.09206,-1.7788 2.21142,-3.78436 4.17363,-4.84195 c 1.21391,-1.29891 3.26358,-1.02514 4.42632,-2.29317 c 2.10559,-0.64874 4.29505,-1.02052 6.49631,-0.75178 c 2.27535,0.0677 4.56674,0.13297 6.80341,0.59499 c 2.09134,0.95759 4.58481,0.93704 6.22566,2.71153 c 1.62526,0.69958 2.1779,2.44105 3.38218,3.57606 c 1.35162,1.45985 2.70395,3.08031 3.10651,5.08429 c 1.76051,1.79434 1.40268,4.53483 1.65887,6.83961 c 0.10418,1.96471 0.11002,3.95885 -0.32516,5.88809 c -1.47278,1.80122 -1.91079,4.07542 -3.42635,5.82669 c -1.53479,1.70758 -3.09806,3.45758 -5.33362,4.23505 c -3.1503,2.27187 -7.25146,1.74571 -10.89903,1.52108 c -0.46607,-0.0289 -0.93243,-0.054 -1.39917,-0.0692 z" id="path3870"/>
          <path style="fill:#ff0000;fill-opacity:1;fill-rule:nonzero;stroke:none" d="m 631.28223,360.65291 c -2.81871,-0.80025 -5.22942,-2.72682 -7.59712,-4.38277 c -1.91247,-1.33756 -2.8984,-3.24771 -4.35404,-4.93079 c -1.02039,-1.17982 -2.16546,-3.48957 -1.79689,-4.2217 c 0.61783,-1.22725 3.53371,-3.95499 5.94962,-3.07219 c 17.4492,6.37615 24.18484,-15.41391 12.14327,-21.84061 c -2.01137,-1.07349 -4.43762,-1.36291 -6.32436,-2.47258 c -2.70472,-1.59077 -2.00796,-6.94126 1.25161,-7.74598 c 2.18768,-0.54009 3.82581,-1.75329 6.1354,-1.8811 c 6.24203,-0.34544 12.71986,-0.87827 18.78145,0.99112 c 2.12743,0.6561 3.70522,2.3604 4.44283,4.54111 c 0.58652,1.73403 1.06955,3.20824 1.30997,5.00861 c 0.70043,5.24523 -1.01034,10.91287 -2.61143,16.10676 c -0.68633,2.22643 -2.05642,4.27415 -2.97481,6.36997 c -1.17796,2.68817 -2.78582,5.24464 -4.5304,7.59566 c -2.21818,2.98925 -4.79012,5.96121 -7.93753,7.90762 c -1.82718,1.12997 -4.51257,1.28241 -6.176,2.20962 c -1.55118,0.86465 -4.14442,0.26217 -5.71157,-0.18275 z" id="path3874"/>
          <path style="fill:#ff0000;fill-opacity:1;fill-rule:nonzero;stroke:none" d="m 626.19715,335.40536 c 0.96237,-2.65911 1.95716,-7.87794 5.23442,-8.14674 c 0.96394,0.51073 1.6884,1.38001 2.28886,2.27199 c 2.58731,4.2887 -5.08257,12.28215 -7.52328,5.87475 z" id="path3876"/>
          <path style="fill:#ff0000;fill-opacity:1;fill-rule:nonzero;stroke:none" d="m 577.73824,314.7439 c 0.29016,-2.11307 1.72493,-3.89598 3.45337,-5.06186 c 2.13062,-1.29765 3.9212,-1.90671 6.12976,-0.69512 c -0.58592,4.45495 -2.59219,10.46594 -6.47699,12.97604 c -2.34667,-1.5921 -3.20697,-4.43578 -3.10614,-7.21906 z" id="path3878"/>
          <path style="fill:#ff0000;fill-opacity:1;fill-rule:nonzero;stroke:none" d="m 569.13489,339.2599 c -3.42779,-0.0547 -6.41402,-1.09645 -9.4154,-2.32425 c -2.66411,-1.08983 -5.20446,-2.6967 -7.32097,-5.15174 c -2.23045,-2.5872 -4.35633,-5.68734 -4.04203,-9.32894 c 0.28519,-3.30423 0.92379,-6.6616 2.20124,-9.91191 c 1.63229,-4.15315 3.27765,-8.50379 6.01149,-12.05268 c 1.99337,-2.58766 3.99655,-5.48244 6.32673,-7.92991 c 2.65942,-2.7933 5.71772,-5.38178 9.19412,-6.92761 c 7.14426,-3.1768 16.57603,-0.96948 21.387,5.42465 c 2.27986,3.03009 6.20063,6.58304 4.56285,10.42316 c -2.04007,4.78336 -8.88849,0.30597 -12.74426,-0.51824 c -3.81182,-0.81482 -6.81665,0.16613 -9.74903,2.37117 c -3.21393,2.41676 -5.1617,6.15289 -4.85458,10.21409 c 0.30823,4.0758 1.81234,7.5593 4.21061,10.68723 c 2.49246,3.25078 7.12316,3.73413 9.50262,6.84643 c 2.9644,3.8774 -1.80254,7.18443 -5.47912,7.66845 c -3.26563,0.42991 -6.50096,0.56263 -9.79127,0.5101 z" id="path3880"/>
        </g>
      </g>
    </g>
  </g>
  <g>
    <rect x="11.236" y="186.575" width="94.028" height="80.828" style="fill: rgb(159, 241, 248);" rx="16.772" ry="16.772"/>
    <rect x="101.603" y="307.119" width="95.044" height="74.221" style="fill: rgb(159, 193, 248);" rx="24.904" ry="24.904"/>
    <rect x="185.421" y="187.652" width="105.718" height="80.32" style="fill: rgb(186, 159, 248);" rx="18.559" ry="18.559"/>
    <path d="M 102.896 307.2 C 102.289 318.699 98.058 342.019 87.087 347.685 C 70.638 356.181 50.415 349.733 41.919 333.283 C 33.422 316.834 39.871 296.61 56.32 288.114 C 63.346 284.485 78.914 287.511 86.108 288.949 L 113.472 266.307 C 115.38 260.991 122.039 244.439 126.449 240.616 L 122.429 217.04 C 119.987 214.626 117.879 211.793 116.219 208.578 C 107.722 192.127 114.17 171.904 130.62 163.409 C 147.069 154.912 167.293 161.36 175.789 177.81 C 183.384 192.515 176.35 209.166 163.591 218.829 L 163.808 240.413 C 166.978 243.137 172.116 249.149 174.151 253.092 C 174.605 253.968 183.198 265.004 183.567 265.899 C 189.789 273.368 226.349 291.364 226.349 291.364 C 242.381 284.44 264.538 288.075 272.672 303.826 C 281.168 320.274 274.72 340.498 258.27 348.994 C 241.821 357.491 221.597 351.041 213.101 334.593 C 212.016 332.492 212.157 322.474 211.549 320.282 L 170.541 290.064 C 170.329 290.179 159.967 298.149 159.75 298.261 C 150.327 303.127 131.481 298.509 122.494 294.496 L 102.896 307.2 Z" style="fill: rgb(201, 236, 245); stroke: rgb(0, 0, 0); stroke-width: 0;"/>
    <ellipse transform="matrix(-0.634739, 0.772725, -0.772727, -0.634739, 531.530006, 80.628589)" cx="303.423" cy="169.247" rx="18.417" ry="18.417" style="fill: rgb(248, 157, 245);"/>
    <ellipse transform="matrix(-0.63474, 0.772725, -0.772725, -0.63474, 563.550076, 103.500758)" cx="303.423" cy="169.247" rx="18.417" ry="18.417" style="fill: rgb(245, 175, 239);"/>
    <ellipse transform="matrix(-0.63474, 0.772725, -0.772727, -0.634741, 598.110691, 128.913975)" cx="303.423" cy="169.247" rx="18.417" ry="18.417" style="fill: rgb(248, 188, 243);"/>
    <g transform="matrix(1, 0, 0, 1, -67.380249, -28.937691)">
      <path transform="matrix(0.009972, 0.045008, -0.04127, 0.010875, 119.564873, 242.163132)" d="M 518.448 82.605 L 537.552 82.605 L 595.859 498.423 A 97.908 97.908 0 0 1 598.577 501.141 L 1014.395 559.448 L 1014.395 578.552 L 598.577 636.859 A 97.908 97.908 0 0 1 595.859 639.577 L 537.552 1055.395 L 518.448 1055.395 L 460.141 639.577 A 97.908 97.908 0 0 1 457.423 636.859 L 41.605 578.552 L 41.605 559.448 L 457.423 501.141 A 97.908 97.908 0 0 1 460.141 498.423 Z M 528 359.208 A 209.792 209.792 0 0 0 528 778.792 A 209.792 209.792 0 0 0 528 359.208" style="stroke-width: 4.76251; stroke: rgb(255, 255, 255); fill: rgb(93, 148, 251);" bx:shape="cog 528 569 209.792 97.908 486.395 0.95 4 1@2de0da93"/>
      <path transform="matrix(-0.524926, 0.851148, -0.808933, -0.593378, 796.919615, 193.957517)" d="M 476 551 m -11.683 0 a 11.683 11.271 0 1 0 23.366 0 a 11.683 11.271 0 1 0 -23.366 0 Z M 476 551 m -9.516 0 a 9.516 9.181 0 0 1 19.032 0 a 9.516 9.181 0 0 1 -19.032 0 Z" style="fill: rgb(255, 255, 255);" bx:shape="ring 476 551 9.516 9.181 11.683 11.271 1@5af74dc8"/>
      <path transform="matrix(-0.524926, 0.851145, -0.808931, -0.593378, 796.918225, 193.957979)" d="M 476 551 m -12.304 0 a 12.304 11.871 0 1 0 24.608 0 a 12.304 11.871 0 1 0 -24.608 0 Z M 476 551 m -10.984 0 a 10.984 10.597 0 0 1 21.968 0 a 10.984 10.597 0 0 1 -21.968 0 Z" style="stroke-width: 0; fill: rgb(93, 148, 251);" bx:shape="ring 476 551 10.984 10.597 12.304 11.871 1@c78ca38f"/>
      <path d="M 100.723 268.949 L 103.975 275.143 L 101.945 275.143 L 98.705 268.949 L 100.723 268.949 Z M 100.134 275.143 L 98.472 275.143 L 98.683 269.537 L 100.235 272.483 L 100.134 275.143 Z M 102.544 268.949 L 104.208 268.949 L 103.997 274.554 L 102.445 271.596 L 102.544 268.949 Z" style="fill: rgb(93, 148, 251); white-space: pre;" transform="matrix(0.970306, -0.241882, 0.241882, 0.970306, -62.793803, 32.590538)"/>
    </g>
    <path d="M 131.801 356.39 C 131.801 356.39 145.69 347.57 149.53 348.486 C 149.53 348.486 161.568 356.447 156.361 356.447 L 143.601 365.028 C 138.393 365.028 131.801 361.597 131.801 356.39 Z" style="fill: rgb(255, 170, 253);"/>
    <path d="M 132.478 358.14 C 132.478 358.14 142.745 350.301 146.593 350.349 C 150.243 350.394 157.998 354.188 157.998 354.188 C 159.917 353.85 153.143 350.272 153.143 349.445 C 153.143 348.953 145.374 347.503 142.754 349.332 C 142.1 349.789 132.671 352.414 130.785 356.22 C 130.97 356.593 130.341 358.14 132.478 358.14 Z" style="stroke: rgb(0, 0, 0); fill: rgb(254, 246, 246);"/>
    <path d="M 150.156 358.026 C 149.417 358.281 146.576 355.83 147.117 354.184 C 147.695 352.423 148.245 354.914 148.756 354.914 C 148.793 354.914 151.616 353.579 151.438 353.455 C 150.314 352.672 150.475 351.476 150.907 351.266 C 151.808 350.828 154.607 353.952 153.524 355.278 C 152.98 355.943 152.196 353.804 151.736 354.366 C 151.216 355.003 150.268 355.433 149.799 356.007 C 149.718 356.106 151.134 357.688 150.156 358.026 Z" style="stroke: rgb(0, 0, 0); fill: rgb(101, 99, 99);"/>
    <path d="M 131.688 354.526 C 131.688 354.526 125.67 357.237 127.397 359.156 C 127.531 359.304 132.439 355.66 130.559 362.996 C 130.147 364.603 137.082 375.313 136.769 371.126 C 136.593 368.769 139.017 365.418 141.399 367.174 C 142.558 368.027 143.529 369.743 143.319 374.288 C 143.218 376.461 144.426 375.621 146.706 377.224 C 149.39 379.11 160.265 376.379 162.402 375.078 C 167.044 372.251 171.67 365.932 168.048 361.866 C 167.431 361.174 160.824 356.269 160.934 355.543 C 162.252 346.874 158.142 348.578 157.773 348.768 C 155.153 350.107 153.277 354.866 153.255 354.866 C 151.28 354.866 147.271 359.044 147.271 359.044 C 147.271 359.044 140.195 353.623 137.898 356.785 C 136.919 358.134 138.397 362.912 141.173 363.221 C 143.249 363.453 137.786 363.109 137.786 363.109 L 131.688 354.526 Z" style="stroke: rgb(0, 0, 0); fill: rgb(255, 244, 244);"/>
    <path d="M 154.221 367.81 C 154.221 369.155 153.327 370.245 152.223 370.245 C 151.119 370.245 150.224 369.155 150.224 367.81 C 150.224 366.465 151.119 365.375 152.223 365.375 C 153.327 365.375 154.221 366.465 154.221 367.81 Z" style="fill: rgb(216, 216, 216); stroke: rgb(158, 158, 158);" transform="matrix(-0.678282, 0.734802, -0.734802, -0.678282, 525.739744, 505.435419)"/>
    <path d="M 157.712 373.723 L 166.406 367.625 C 168.035 368.077 168.147 370.109 167.649 370.109 L 159.18 376.546 C 158.681 376.546 156.921 376.142 157.712 373.723 Z" style="fill: rgb(255, 170, 253); stroke: rgb(207, 207, 207);" transform="matrix(-1, 0, 0, -1, 325.420739, 744.171005)"/>
    <ellipse style="fill: rgb(216, 216, 216); stroke: rgb(0, 0, 0); stroke-width: 2.99999;" transform="matrix(-0.975611, 0.219498, -0.219526, -0.975608, 155.159926, 394.000052)" cx="9.799" cy="25.304" rx="1.922" ry="2.38"/>
    <ellipse style="fill: rgb(216, 216, 216); stroke: rgb(0, 0, 0); stroke-width: 2.99999;" transform="matrix(-0.975601, 0.219539, -0.219513, -0.975603, 140.734371, 376.749896)" cx="7.624" cy="18.129" rx="1.496" ry="1.705"/>
    <path d="M 162.138 370.334 C 162.138 371.278 161.807 371.634 160.959 371.634 C 160.109 371.634 159.002 369.855 159.002 368.91 C 159.002 367.966 159.499 367.251 160.348 367.251 C 161.198 367.251 162.138 369.39 162.138 370.334 Z" style="fill: rgb(255, 213, 0); stroke: rgb(0, 0, 0);" transform="matrix(0.229037, 0.973418, -0.973418, 0.229037, 483.415468, 128.524885)"/>
    <path d="M 163.932 361.939 C 163.932 363.284 163.038 364.373 161.935 364.373 C 160.831 364.373 159.936 363.284 159.936 361.939 C 159.936 360.593 160.831 359.504 161.935 359.504 C 163.038 359.504 163.932 360.593 163.932 361.939 Z" style="fill: rgb(216, 216, 216); stroke: rgb(158, 158, 158);" transform="matrix(-0.678282, 0.734802, -0.734802, -0.678282, 537.724002, 488.445296)"/>
    <text x="54.732" y="173.363" style="white-space: pre; fill: rgb(51, 51, 51); font-family: sans-serif; font-size: 13.5px;" transform="matrix(1, 0, 0, 0.999999, -25.927597, 31.744492)">Navigator</text>
    <text x="123.738" y="327.794" style="white-space: pre; fill: rgb(51, 51, 51); font-family: sans-serif; font-size: 16.5px;">Driver</text>
    <text x="217.727" y="198.152" style="white-space: pre; fill: rgb(51, 51, 51); font-family: sans-serif; font-size: 17.6px;" transform="matrix(1, 0, 0, 1.000001, 9.838318, 7.246658)">Friends</text>
    <text x="118.964" y="276.858" style="fill: rgb(168, 253, 168); font-family: sans-serif; font-size: 24px; paint-order: stroke; white-space: pre; stroke: url(#gradient-1);">Sync</text>
    <g transform="matrix(0.351667, -0.377545, 0.377545, 0.351667, -53.965363, 276.897034)">
      <line style="stroke: rgb(108, 107, 107); stroke-width: 3.87631;" x1="112.984" y1="185.393" x2="104.869" y2="275.905"/>
      <line style="stroke: rgb(108, 107, 107); stroke-width: 3.87631;" x1="105.234" y1="276.148" x2="91.496" y2="257.321"/>
      <line style="stroke: rgb(108, 107, 107); stroke-width: 3.87631;" x1="104.515" y1="276.039" x2="125.572" y2="260.605"/>
    </g>
    <g transform="matrix(-0.459095, -0.235462, 0.235462, -0.459095, 239.613403, 452.235352)">
      <line style="stroke: rgb(108, 107, 107); stroke-width: 3.87631;" x1="112.984" y1="185.393" x2="104.869" y2="275.905"/>
      <line style="stroke: rgb(108, 107, 107); stroke-width: 3.87631;" x1="105.234" y1="276.148" x2="91.496" y2="257.321"/>
      <line style="stroke: rgb(108, 107, 107); stroke-width: 3.87631;" x1="104.515" y1="276.039" x2="125.572" y2="260.605"/>
    </g>
    <g transform="matrix(0.147069, 0.49455, -0.49455, 0.147069, 245.193237, 101.506149)">
      <line style="stroke: rgb(108, 107, 107); stroke-width: 3.87631;" x1="112.984" y1="185.393" x2="104.869" y2="275.905"/>
      <line style="stroke: rgb(108, 107, 107); stroke-width: 3.87631;" x1="105.234" y1="276.148" x2="91.496" y2="257.321"/>
      <line style="stroke: rgb(108, 107, 107); stroke-width: 3.87631;" x1="104.515" y1="276.039" x2="125.572" y2="260.605"/>
    </g>
  </g>
  <rect x="12.872" y="400.297" width="143.861" height="64.515" style="fill: rgb(242, 242, 242); stroke-width: 3; stroke: rgb(212, 214, 212);"/>
  <text x="14.034" y="229.3" style="white-space: pre; fill: rgb(51, 51, 51); font-family: sans-serif; font-size: 12.8px;" transform="matrix(1, 0, 0, 1.000001, 6.916112, 190.507202)">Nuvarande state</text>
  <text x="18.618" y="246.718" style="white-space: pre; fill: rgb(51, 51, 51); font-family: sans-serif; font-size: 12.8px;" transform="matrix(1, 0, 0, 1.000001, 3.63513, 191.538651)">Vad har vi gjort</text>
  <text x="21.405" y="454.645" style="white-space: pre; fill: rgb(51, 51, 51); font-family: sans-serif; font-size: 12.8px;">Vad är nästa steg</text>
  <text x="11.427" y="401.235" style="fill: rgb(168, 253, 168); font-family: sans-serif; font-size: 24px; paint-order: stroke; stroke: rgb(48, 48, 48); white-space: pre;">Sync</text>
  <rect x="23.803" y="6.356" width="90.512" height="94.881" style="fill: rgb(130, 251, 235); stroke-width: 3;"/>
  <g transform="matrix(1, 0, 0, 1, -0.674222, -104.97493)">
    <rect x="75.118" y="68.931" width="31.179" height="12.273" transform="matrix(1, 0, 0, 1.000001, 0.252045, 93.560713)"/>
    <rect x="77.108" y="59.975" width="7.629" height="12.273" transform="matrix(1, 0, 0, 1.000001, 0.252045, 93.560884)"/>
    <ellipse transform="matrix(-0.752576, 0.658505, -0.658508, -0.752575, 219.329929, 161.476678)" cx="100.834" cy="112.443" rx="3.526" ry="3.526"/>
    <ellipse transform="matrix(-0.485645, 0.874156, -0.874156, -0.485645, 230.712319, 114.673296)" cx="102.492" cy="116.755" rx="3.415" ry="3.415"/>
    <ellipse transform="matrix(-0.760373, 0.649487, -0.649485, -0.760373, 186.958569, 177.637229)" cx="62" cy="59.966" rx="6.76" ry="6.76"/>
    <ellipse transform="matrix(-0.824512, 0.565842, -0.565843, -0.824511, 139.299959, 200.699393)" cx="36.515" cy="59.751" rx="6.623" ry="6.623"/>
    <ellipse transform="matrix(-0.824513, 0.565843, -0.565843, -0.824512, 105.890754, 199.735223)" cx="36.515" cy="59.751" rx="6.623" ry="6.623"/>
    <ellipse transform="matrix(-0.824513, 0.565843, -0.565843, -0.824512, 125.058287, 200.698968)" cx="36.515" cy="59.751" rx="6.623" ry="6.623"/>
    <rect x="72.813" y="157.961" width="7.71" height="11.886"/>
    <ellipse transform="matrix(-0.752576, 0.658508, -0.658503, -0.752578, 210.643715, 157.550063)" cx="100.834" cy="112.443" rx="3.526" ry="3.526"/>
    <rect x="39.297" y="153.035" width="26.021" height="19.81"/>
    <rect x="62.426" y="164.6" width="13.813" height="2.677"/>
    <ellipse transform="matrix(-0.752576, 0.658508, -0.658504, -0.752579, 200.685022, 154.016511)" cx="100.834" cy="112.443" rx="3.526" ry="3.526"/>
  </g>
  <rect x="142.717" y="6.981" width="90.512" height="94.881" style="fill: rgb(124, 192, 255); stroke-width: 3;"/>
  <g transform="matrix(1, 0, 0, 1, -0.037534, -116.435425)">
    <rect x="186.205" y="171.743" width="6.125" height="7.171" rx="8.1" ry="8.1" style="fill: rgb(19, 19, 19);"/>
    <ellipse transform="matrix(-0.643605, 0.765357, -0.765357, -0.643601, 215.594965, 157.34265)" cx="26.02" cy="12.624" rx="2.962" ry="2.962" style="fill: rgb(19, 19, 19);"/>
    <rect x="186.198" y="176.298" width="6.132" height="3.244" style="fill: rgb(19, 19, 19);"/>
    <rect x="177.194" y="173.052" width="23.184" height="1.764" style="fill: rgb(229, 224, 224);"/>
    <rect x="198.865" y="168.516" width="5.796" height="10.08"/>
    <rect x="173.526" y="168.277" width="5.796" height="10.08"/>
    <rect x="50.803" y="45.137" width="1.115" height="1.486" transform="matrix(1.000003, 0, 0, 1.000005, 134.097368, 128.234776)" style="fill: rgb(10, 10, 10);"/>
    <rect x="58.326" y="45.323" width="1.022" height="1.3" transform="matrix(0.999996, 0, 0, 1.000006, 134.098183, 128.235097)" style="fill: rgb(10, 10, 10);"/>
  </g>
  <rect x="265.689" y="6.981" width="90.512" height="94.881" style="fill: rgb(255, 125, 125); stroke-width: 3;"/>
  <rect x="388.66" y="8.229" width="90.512" height="94.881" style="fill: rgb(127, 134, 255); stroke-width: 3;"/>
  <rect x="511.053" y="8.462" width="90.512" height="94.881" style="stroke-width: 3; fill: rgb(228, 127, 255);"/>
  <path d="M 307.596 35.236 H 316.332 V 52.708 H 333.804 V 61.444 H 316.332 V 78.916 H 307.596 V 61.444 H 290.124 V 52.708 H 307.596 Z" style="fill: rgb(255, 255, 255);" bx:shape="cross 290.124 35.236 43.68 43.68 8.736 8.736 0.5 1@0f95219b"/>
  <path d="M 577.806 67.372 C 577.046 69.131 576.145 70.748 575.102 72.237 C 573.679 74.265 572.515 75.668 571.617 76.448 C 570.225 77.728 568.735 78.382 567.139 78.42 C 565.992 78.42 564.61 78.094 563.002 77.432 C 561.388 76.774 559.904 76.448 558.548 76.448 C 557.125 76.448 555.6 76.774 553.968 77.432 C 552.333 78.094 551.017 78.438 550.01 78.472 C 548.479 78.537 546.954 77.863 545.43 76.448 C 544.458 75.599 543.242 74.146 541.786 72.087 C 540.223 69.888 538.938 67.339 537.932 64.431 C 536.854 61.291 536.313 58.25 536.313 55.307 C 536.313 51.935 537.042 49.027 538.501 46.589 C 539.648 44.632 541.173 43.087 543.084 41.955 C 544.993 40.821 547.057 40.243 549.279 40.206 C 550.496 40.206 552.089 40.581 554.072 41.321 C 556.047 42.063 557.316 42.438 557.872 42.438 C 558.289 42.438 559.697 41.999 562.087 41.122 C 564.347 40.309 566.253 39.972 567.815 40.106 C 572.048 40.447 575.228 42.116 577.344 45.122 C 573.558 47.416 571.685 50.628 571.723 54.751 C 571.756 57.961 572.922 60.633 575.21 62.754 C 576.248 63.739 577.406 64.5 578.695 65.039 C 578.416 65.851 578.121 66.627 577.806 67.372 Z M 568.098 29.168 C 568.098 31.683 567.179 34.034 565.347 36.208 C 563.135 38.793 560.459 40.287 557.56 40.052 C 557.522 39.75 557.502 39.432 557.502 39.097 C 557.502 36.683 558.553 34.097 560.42 31.983 C 561.352 30.913 562.539 30.024 563.977 29.313 C 565.412 28.614 566.769 28.227 568.044 28.161 C 568.082 28.498 568.098 28.834 568.098 29.168 Z" style="fill: rgb(123, 255, 123);"/>
  <g transform="matrix(1, 0, 0, 1, -1.625501, -10.085474)">
    <g transform="matrix(0, -0.378099, 0.378099, 0, 390.02121, 222.924622)">
      <rect x="407.067" y="53.238" width="16.2" height="18.965" rx="8.1" ry="8.1" style="fill: rgb(19, 19, 19);"/>
      <ellipse transform="matrix(-0.6436, 0.765362, -0.765362, -0.6436, 484.799168, 15.151312)" cx="68.819" cy="33.388" rx="7.834" ry="7.834" style="fill: rgb(19, 19, 19);"/>
      <rect x="407.049" y="65.284" width="16.217" height="8.579" style="fill: rgb(19, 19, 19);"/>
    </g>
    <ellipse transform="matrix(-0.66103, 0.75036, -0.750359, -0.661029, 529.921726, 30.64292)" cx="89.806" cy="46.606" rx="15.256" ry="15.256"/>
    <g transform="matrix(0.378099, 0, 0, 0.378099, 262.473389, 27.608814)">
      <rect x="407.067" y="53.238" width="16.2" height="18.965" rx="8.1" ry="8.1" style="fill: rgb(19, 19, 19);"/>
      <ellipse transform="matrix(-0.6436, 0.765362, -0.765362, -0.6436, 484.799168, 15.151312)" cx="68.819" cy="33.388" rx="7.834" ry="7.834" style="fill: rgb(19, 19, 19);"/>
      <rect x="407.049" y="65.284" width="16.217" height="8.579" style="fill: rgb(19, 19, 19);"/>
    </g>
    <g transform="matrix(0.378099, 0, 0, 0.378099, 278.292328, 22.741455)">
      <rect x="407.067" y="53.238" width="16.2" height="18.965" rx="8.1" ry="8.1" style="fill: rgb(19, 19, 19);"/>
      <ellipse transform="matrix(-0.6436, 0.765362, -0.765362, -0.6436, 484.799168, 15.151312)" cx="68.819" cy="33.388" rx="7.834" ry="7.834" style="fill: rgb(19, 19, 19);"/>
      <rect x="407.049" y="65.284" width="16.217" height="8.579" style="fill: rgb(19, 19, 19);"/>
    </g>
    <g transform="matrix(0.378099, 0, 0, 0.378099, 294.381653, 26.797588)">
      <rect x="407.067" y="53.238" width="16.2" height="18.965" rx="8.1" ry="8.1" style="fill: rgb(19, 19, 19);"/>
      <ellipse transform="matrix(-0.6436, 0.765362, -0.765362, -0.6436, 484.799168, 15.151312)" cx="68.819" cy="33.388" rx="7.834" ry="7.834" style="fill: rgb(19, 19, 19);"/>
      <rect x="407.049" y="65.284" width="16.217" height="8.579" style="fill: rgb(19, 19, 19);"/>
    </g>
    <g transform="matrix(0, 0.378099, -0.378099, 0, 480.294281, -90.801102)">
      <rect x="407.067" y="53.238" width="16.2" height="18.965" rx="8.1" ry="8.1" style="fill: rgb(19, 19, 19);"/>
      <ellipse transform="matrix(-0.6436, 0.765362, -0.765362, -0.6436, 484.799168, 15.151312)" cx="68.819" cy="33.388" rx="7.834" ry="7.834" style="fill: rgb(19, 19, 19);"/>
      <rect x="407.049" y="65.284" width="16.217" height="8.579" style="fill: rgb(19, 19, 19);"/>
    </g>
    <g transform="matrix(0.378099, 0, 0, -0.378099, 294.787231, 104.981483)">
      <rect x="407.067" y="53.238" width="16.2" height="18.965" rx="8.1" ry="8.1" style="fill: rgb(19, 19, 19);"/>
      <ellipse transform="matrix(-0.6436, 0.765362, -0.765362, -0.6436, 484.799168, 15.151312)" cx="68.819" cy="33.388" rx="7.834" ry="7.834" style="fill: rgb(19, 19, 19);"/>
      <rect x="407.049" y="65.284" width="16.217" height="8.579" style="fill: rgb(19, 19, 19);"/>
    </g>
    <g transform="matrix(0.378099, 0, 0, -0.378099, 279.238739, 111.741692)">
      <rect x="407.067" y="53.238" width="16.2" height="18.965" rx="8.1" ry="8.1" style="fill: rgb(19, 19, 19);"/>
      <ellipse transform="matrix(-0.6436, 0.765362, -0.765362, -0.6436, 484.799168, 15.151312)" cx="68.819" cy="33.388" rx="7.834" ry="7.834" style="fill: rgb(19, 19, 19);"/>
      <rect x="407.049" y="65.284" width="16.217" height="8.579" style="fill: rgb(19, 19, 19);"/>
    </g>
    <g transform="matrix(0.378099, 0, 0, -0.378099, 263.690216, 105.522285)">
      <rect x="407.067" y="53.238" width="16.2" height="18.965" rx="8.1" ry="8.1" style="fill: rgb(19, 19, 19);"/>
      <ellipse transform="matrix(-0.6436, 0.765362, -0.765362, -0.6436, 484.799168, 15.151312)" cx="68.819" cy="33.388" rx="7.834" ry="7.834" style="fill: rgb(19, 19, 19);"/>
      <rect x="407.049" y="65.284" width="16.217" height="8.579" style="fill: rgb(19, 19, 19);"/>
    </g>
  </g>
  <g transform="matrix(0.642045, 0, 0, 0.642045, 240.03421, 197.279526)">
    <ellipse transform="matrix(-0.004891, 0.999988, -1.000002, -0.001967, 590.50387, -125.361966)" cx="200.224" cy="202.317" rx="76.456" ry="102.031" style="fill: rgb(255, 251, 123); stroke: rgb(111, 214, 115); stroke-width: 0;"/>
    <ellipse transform="matrix(-0.603858, 0.797092, -0.797092, -0.603858, 561.191276, 223.675951)" cx="187.89" cy="253.433" rx="51.686" ry="51.686" style="fill: rgb(131, 253, 152);"/>
    <ellipse transform="matrix(-0.603858, 0.797092, -0.797092, -0.603858, 682.523796, 314.954241)" cx="187.89" cy="253.433" rx="51.686" ry="51.686" style="fill: rgb(77, 255, 116);"/>
    <ellipse transform="matrix(-0.603858, 0.797092, -0.797093, -0.603858, 831.59506, 268.882739)" cx="187.89" cy="253.433" rx="51.686" ry="51.686" style="fill: rgb(31, 248, 53);"/>
    <ellipse transform="matrix(-0.603859, 0.797092, -0.797092, -0.603858, 776.392444, 134.875168)" cx="133.628" cy="180.242" rx="36.759" ry="36.759" style="fill: rgb(0, 194, 74);"/>
    <g transform="matrix(0.435925, 0.276005, -0.276005, 0.435925, 307.929962, 20.497561)">
      <line style="stroke: rgb(108, 107, 107); stroke-width: 3.87631;" x1="112.984" y1="185.393" x2="104.869" y2="275.905"/>
      <line style="stroke: rgb(108, 107, 107); stroke-width: 3.87631;" x1="105.234" y1="276.148" x2="91.496" y2="257.321"/>
      <line style="stroke: rgb(108, 107, 107); stroke-width: 3.87631;" x1="104.515" y1="276.039" x2="125.572" y2="260.605"/>
    </g>
    <g transform="matrix(0.240925, -0.380519, 0.380519, 0.240925, 186.245804, 257.675964)">
      <line style="stroke: rgb(108, 107, 107); stroke-width: 4.44072;" x1="112.984" y1="185.393" x2="104.869" y2="275.905"/>
      <line style="stroke: rgb(108, 107, 107); stroke-width: 4.44072;" x1="105.234" y1="276.148" x2="91.496" y2="257.321"/>
      <line style="stroke: rgb(108, 107, 107); stroke-width: 4.44072;" x1="104.515" y1="276.039" x2="125.572" y2="260.605"/>
    </g>
    <g transform="matrix(-0.235542, -0.51907, 0.462873, -0.210042, 362.606293, 397.244934)">
      <line style="stroke: rgb(108, 107, 107); stroke-width: 3.7095;" x1="112.984" y1="185.393" x2="104.869" y2="275.905"/>
      <line style="stroke: rgb(108, 107, 107); stroke-width: 3.7095;" x1="105.234" y1="276.148" x2="91.496" y2="257.321"/>
      <line style="stroke: rgb(108, 107, 107); stroke-width: 3.7095;" x1="104.515" y1="276.039" x2="125.572" y2="260.605"/>
    </g>
    <g transform="matrix(-0.41036, -0.022172, 0.021579, -0.399394, 583.454529, 290.217712)">
      <line style="stroke: rgb(108, 107, 107); stroke-width: 4.93258;" x1="112.984" y1="185.393" x2="104.869" y2="275.905"/>
      <line style="stroke: rgb(108, 107, 107); stroke-width: 4.93258;" x1="105.234" y1="276.148" x2="91.496" y2="257.321"/>
      <line style="stroke: rgb(108, 107, 107); stroke-width: 4.93258;" x1="104.515" y1="276.039" x2="125.572" y2="260.605"/>
    </g>
    <g transform="matrix(-0.163054, 0.344642, -0.344642, -0.163054, 598.522644, 107.471535)">
      <line style="stroke: rgb(108, 107, 107); stroke-width: 4.50251;" x1="112.984" y1="185.393" x2="104.869" y2="275.905"/>
      <line style="stroke: rgb(108, 107, 107); stroke-width: 4.50251;" x1="105.234" y1="276.148" x2="91.496" y2="257.321"/>
      <line style="stroke: rgb(108, 107, 107); stroke-width: 4.50251;" x1="104.515" y1="276.039" x2="125.572" y2="260.605"/>
    </g>
    <text x="417.52" y="383.525" style="white-space: pre; fill: rgb(51, 51, 51); font-family: sans-serif; font-size: 48.1px;" transform="matrix(0.999999, 0, 0, 1, -187.765747, -147.254715)">1</text>
    <text x="376.705" y="715.743" style="white-space: pre; fill: rgb(51, 51, 51); font-family: sans-serif; font-size: 44.9px;" transform="matrix(1.000001, 0, 0, 1, -21.644238, -388.305176)">2</text>
    <text x="735.531" y="685.424" style="white-space: pre; fill: rgb(51, 51, 51); font-family: sans-serif; font-size: 47.4px;" transform="matrix(1, 0, 0, 0.999999, -232.794037, -404.198669)">3</text>
    <text x="526.899" y="136.408" style="white-space: pre; fill: rgb(51, 51, 51); font-family: sans-serif; font-size: 24px;">retro</text>
    <text x="355.188" y="76.951" style="white-space: pre; fill: rgb(51, 51, 51); font-family: sans-serif; font-size: 24px;">pause</text>
  </g>
</svg>