<?xml version="1.0" encoding="utf-8"?>
<svg viewBox="0 0 500 500" xmlns="http://www.w3.org/2000/svg" xmlns:bx="https://boxy-svg.com">
  <defs>
    <pattern id="pattern-0" x="0" y="0" width="20" height="20" patternUnits="userSpaceOnUse" viewBox="0 0 100 100">
      <path d="M 0 0 L 50 0 L 50 100 L 0 100 Z" style="fill: black;"/>
    </pattern>
    <radialGradient id="gradient-0" gradientUnits="userSpaceOnUse" cx="215.719" cy="325.063" r="8" spreadMethod="pad" gradientTransform="matrix(1, 0, 0, 1, -18.696884, 3.182434)">
      <stop offset="0" style="stop-color: #bada55"/>
      <stop offset="1" style="stop-color: #758d29"/>
    </radialGradient>
  </defs>
  <rect x="81.301" y="246.227" width="94.028" height="80.828" style="fill: rgb(159, 241, 248);" rx="16.772" ry="16.772"/>
  <rect x="171.668" y="366.771" width="95.044" height="74.221" style="fill: rgb(159, 193, 248);" rx="24.904" ry="24.904"/>
  <rect x="255.486" y="247.304" width="105.718" height="80.32" style="fill: rgb(186, 159, 248);" rx="18.559" ry="18.559"/>
  <path d="M 172.961 366.852 C 172.354 378.351 168.123 401.671 157.152 407.337 C 140.703 415.833 120.48 409.385 111.984 392.935 C 103.487 376.486 109.936 356.262 126.385 347.766 C 133.411 344.137 148.979 347.163 156.173 348.601 L 183.537 325.959 C 185.445 320.643 192.104 304.091 196.514 300.268 L 192.494 276.692 C 190.052 274.278 187.944 271.445 186.284 268.23 C 177.787 251.779 184.235 231.556 200.685 223.061 C 217.134 214.564 237.358 221.012 245.854 237.462 C 253.449 252.167 246.415 268.818 233.656 278.481 L 233.873 300.065 C 237.043 302.789 242.181 308.801 244.216 312.744 C 244.67 313.62 253.263 324.656 253.632 325.551 C 259.854 333.02 296.414 351.016 296.414 351.016 C 312.446 344.092 334.602 347.727 342.737 363.478 C 351.233 379.926 344.785 400.15 328.335 408.646 C 311.886 417.143 291.662 410.693 283.166 394.245 C 282.081 392.144 282.222 382.126 281.614 379.934 L 240.606 349.716 C 240.394 349.831 230.032 357.801 229.815 357.913 C 220.392 362.779 201.546 358.161 192.559 354.148 L 172.961 366.852 Z" style="fill: rgb(201, 236, 245); stroke: rgb(0, 0, 0); stroke-width: 0;"/>
  <ellipse transform="matrix(-0.634738, 0.772725, -0.772727, -0.634741, 601.593798, 140.279816)" cx="303.424" cy="169.247" rx="18.417" ry="18.417" style="fill: rgb(248, 157, 245);"/>
  <ellipse transform="matrix(-0.63474, 0.772726, -0.772727, -0.634741, 633.61422, 163.152575)" cx="303.423" cy="169.247" rx="18.417" ry="18.417" style="fill: rgb(245, 175, 239);"/>
  <ellipse transform="matrix(-0.63474, 0.772726, -0.772727, -0.634741, 668.175011, 188.564989)" cx="303.423" cy="169.247" rx="18.417" ry="18.417" style="fill: rgb(248, 188, 243);"/>
  <g transform="matrix(1, 0, 0, 1, 2.683861, 30.71406)">
    <path transform="matrix(0.009972, 0.045008, -0.04127, 0.010875, 119.564873, 242.163132)" d="M 518.448 82.605 L 537.552 82.605 L 595.859 498.423 A 97.908 97.908 0 0 1 598.577 501.141 L 1014.395 559.448 L 1014.395 578.552 L 598.577 636.859 A 97.908 97.908 0 0 1 595.859 639.577 L 537.552 1055.395 L 518.448 1055.395 L 460.141 639.577 A 97.908 97.908 0 0 1 457.423 636.859 L 41.605 578.552 L 41.605 559.448 L 457.423 501.141 A 97.908 97.908 0 0 1 460.141 498.423 Z M 528 359.208 A 209.792 209.792 0 0 0 528 778.792 A 209.792 209.792 0 0 0 528 359.208" style="stroke-width: 4.76251; stroke: rgb(255, 255, 255); fill: rgb(93, 148, 251);" bx:shape="cog 528 569 209.792 97.908 486.395 0.95 4 1@2de0da93"/>
    <path transform="matrix(-0.524926, 0.851148, -0.808933, -0.593378, 796.919615, 193.957517)" d="M 476 551 m -11.683 0 a 11.683 11.271 0 1 0 23.366 0 a 11.683 11.271 0 1 0 -23.366 0 Z M 476 551 m -9.516 0 a 9.516 9.181 0 0 1 19.032 0 a 9.516 9.181 0 0 1 -19.032 0 Z" style="fill: rgb(255, 255, 255);" bx:shape="ring 476 551 9.516 9.181 11.683 11.271 1@5af74dc8"/>
    <path transform="matrix(-0.524926, 0.851145, -0.808931, -0.593378, 796.918225, 193.957979)" d="M 476 551 m -12.304 0 a 12.304 11.871 0 1 0 24.608 0 a 12.304 11.871 0 1 0 -24.608 0 Z M 476 551 m -10.984 0 a 10.984 10.597 0 0 1 21.968 0 a 10.984 10.597 0 0 1 -21.968 0 Z" style="stroke-width: 0; fill: rgb(93, 148, 251);" bx:shape="ring 476 551 10.984 10.597 12.304 11.871 1@c78ca38f"/>
    <path d="M 100.723 268.949 L 103.975 275.143 L 101.945 275.143 L 98.705 268.949 L 100.723 268.949 Z M 100.134 275.143 L 98.472 275.143 L 98.683 269.537 L 100.235 272.483 L 100.134 275.143 Z M 102.544 268.949 L 104.208 268.949 L 103.997 274.554 L 102.445 271.596 L 102.544 268.949 Z" style="fill: rgb(93, 148, 251); white-space: pre;" transform="matrix(0.970306, -0.241882, 0.241882, 0.970306, -62.793803, 32.590538)"/>
  </g>
  <path d="M 201.866 416.042 C 201.866 416.042 215.755 407.222 219.595 408.138 C 219.595 408.138 231.633 416.099 226.426 416.099 L 213.666 424.68 C 208.458 424.68 201.866 421.249 201.866 416.042 Z" style="fill: rgb(255, 170, 253);"/>
  <path d="M 202.543 417.792 C 202.543 417.792 212.81 409.953 216.658 410.001 C 220.308 410.046 228.063 413.84 228.063 413.84 C 229.982 413.502 223.208 409.924 223.208 409.097 C 223.208 408.605 215.439 407.155 212.819 408.984 C 212.165 409.441 202.736 412.066 200.85 415.872 C 201.035 416.245 200.406 417.792 202.543 417.792 Z" style="stroke: rgb(0, 0, 0); fill: rgb(254, 246, 246);"/>
  <path d="M 220.221 417.678 C 219.482 417.933 216.641 415.482 217.182 413.836 C 217.76 412.075 218.31 414.566 218.821 414.566 C 218.858 414.566 221.681 413.231 221.503 413.107 C 220.379 412.324 220.54 411.128 220.972 410.918 C 221.873 410.48 224.672 413.604 223.589 414.93 C 223.045 415.595 222.261 413.456 221.801 414.018 C 221.281 414.655 220.333 415.085 219.864 415.659 C 219.783 415.758 221.199 417.34 220.221 417.678 Z" style="stroke: rgb(0, 0, 0); fill: rgb(101, 99, 99);"/>
  <path d="M 201.753 414.178 C 201.753 414.178 195.735 416.889 197.462 418.808 C 197.596 418.956 202.504 415.312 200.624 422.648 C 200.212 424.255 207.147 434.965 206.834 430.778 C 206.658 428.421 209.082 425.07 211.464 426.826 C 212.623 427.679 213.594 429.395 213.384 433.94 C 213.283 436.113 214.491 435.273 216.771 436.876 C 219.455 438.762 230.33 436.031 232.467 434.73 C 237.109 431.903 241.735 425.584 238.113 421.518 C 237.496 420.826 230.889 415.921 230.999 415.195 C 232.317 406.526 228.207 408.23 227.838 408.42 C 225.218 409.759 223.342 414.518 223.32 414.518 C 221.345 414.518 217.336 418.696 217.336 418.696 C 217.336 418.696 210.26 413.275 207.963 416.437 C 206.984 417.786 208.462 422.564 211.238 422.873 C 213.314 423.105 207.851 422.761 207.851 422.761 L 201.753 414.178 Z" style="stroke: rgb(0, 0, 0); fill: rgb(255, 244, 244);"/>
  <path style="stroke: rgb(0, 0, 0); fill: rgb(255, 244, 244);" d="M 384.964 394.547"/>
  <path d="M 224.285 427.461 C 224.285 428.806 223.391 429.896 222.287 429.896 C 221.183 429.896 220.289 428.806 220.289 427.461 C 220.289 426.116 221.183 425.026 222.287 425.026 C 223.391 425.026 224.285 426.116 224.285 427.461 Z" style="fill: rgb(216, 216, 216); stroke: rgb(158, 158, 158);" transform="matrix(-0.678282, 0.734801, -0.734801, -0.678282, 687.159287, 554.063434)"/>
  <path d="M 227.777 433.375 L 236.471 427.277 C 238.1 427.729 238.212 429.761 237.714 429.761 L 229.245 436.198 C 228.746 436.198 226.986 435.794 227.777 433.375 Z" style="fill: rgb(255, 170, 253); stroke: rgb(207, 207, 207);" transform="matrix(-1, 0, 0, -1, 465.550715, 863.474981)"/>
  <path style="fill: rgb(216, 216, 216); stroke: rgb(0, 0, 0);" d="M 428.995 431.593"/>
  <ellipse style="fill: rgb(216, 216, 216); stroke: rgb(0, 0, 0); stroke-width: 2.99999;" transform="matrix(-0.975611, 0.219498, -0.219515, -0.975603, 225.223879, 453.651964)" cx="9.799" cy="25.304" rx="1.922" ry="2.38"/>
  <ellipse style="fill: rgb(216, 216, 216); stroke: rgb(0, 0, 0); stroke-width: 2.99999;" transform="matrix(-0.975611, 0.219518, -0.219505, -0.975623, 210.798371, 436.401907)" cx="7.624" cy="18.129" rx="1.496" ry="1.705"/>
  <path d="M 232.203 429.985 C 232.203 430.929 231.872 431.285 231.024 431.285 C 230.174 431.285 229.067 429.506 229.067 428.561 C 229.067 427.617 229.564 426.902 230.413 426.902 C 231.263 426.902 232.203 429.041 232.203 429.985 Z" style="fill: rgb(255, 213, 0); stroke: rgb(0, 0, 0);" transform="matrix(0.229037, 0.973418, -0.973418, 0.229037, 595.498314, 106.311054)"/>
  <path d="M 233.996 421.59 C 233.996 422.935 233.102 424.024 231.999 424.024 C 230.895 424.024 230 422.935 230 421.59 C 230 420.244 230.895 419.155 231.999 419.155 C 233.102 419.155 233.996 420.244 233.996 421.59 Z" style="fill: rgb(216, 216, 216); stroke: rgb(158, 158, 158);" transform="matrix(-0.678282, 0.734801, -0.734801, -0.678282, 699.142679, 537.073721)"/>
  <text x="54.732" y="173.363" style="white-space: pre; fill: rgb(51, 51, 51); font-family: sans-serif; font-size: 13.5px;" transform="matrix(1, 0, 0, 0.999999, 44.13652, 91.396233)">Navigator</text>
  <text x="193.803" y="387.446" style="white-space: pre; fill: rgb(51, 51, 51); font-family: sans-serif; font-size: 16.5px;">Driver</text>
  <text x="217.727" y="198.152" style="white-space: pre; fill: rgb(51, 51, 51); font-family: sans-serif; font-size: 17.6px;" transform="matrix(1, 0, 0, 1.000001, 79.902435, 66.898406)">Friends</text>
  <text x="189.029" y="336.51" style="fill: rgb(168, 253, 168); font-family: sans-serif; font-size: 24px; paint-order: stroke; stroke: url(#gradient-0); white-space: pre;">Sync</text>
  <g transform="matrix(0.351667, -0.377545, 0.377545, 0.351667, 16.098751, 336.548798)">
    <line style="stroke: rgb(108, 107, 107); stroke-width: 3.87631;" x1="112.984" y1="185.393" x2="104.869" y2="275.905"/>
    <line style="stroke: rgb(108, 107, 107); stroke-width: 3.87631;" x1="105.234" y1="276.148" x2="91.496" y2="257.321"/>
    <line style="stroke: rgb(108, 107, 107); stroke-width: 3.87631;" x1="104.515" y1="276.039" x2="125.572" y2="260.605"/>
  </g>
  <g transform="matrix(-0.459095, -0.235462, 0.235462, -0.459095, 309.677521, 511.887054)">
    <line style="stroke: rgb(108, 107, 107); stroke-width: 3.87631;" x1="112.984" y1="185.393" x2="104.869" y2="275.905"/>
    <line style="stroke: rgb(108, 107, 107); stroke-width: 3.87631;" x1="105.234" y1="276.148" x2="91.496" y2="257.321"/>
    <line style="stroke: rgb(108, 107, 107); stroke-width: 3.87631;" x1="104.515" y1="276.039" x2="125.572" y2="260.605"/>
  </g>
  <g transform="matrix(0.147069, 0.49455, -0.49455, 0.147069, 315.257355, 161.157898)">
    <line style="stroke: rgb(108, 107, 107); stroke-width: 3.87631;" x1="112.984" y1="185.393" x2="104.869" y2="275.905"/>
    <line style="stroke: rgb(108, 107, 107); stroke-width: 3.87631;" x1="105.234" y1="276.148" x2="91.496" y2="257.321"/>
    <line style="stroke: rgb(108, 107, 107); stroke-width: 3.87631;" x1="104.515" y1="276.039" x2="125.572" y2="260.605"/>
  </g>
</svg>